<svg width="189" height="42" viewBox="0 0 189 42" fill="none" xmlns="http://www.w3.org/2000/svg">
<path d="M38.7659 34.3813V40.147H37.531V34.3813H38.7659ZM40.9442 36.7151V37.676H38.3972V36.7151H40.9442ZM41.8618 34.3813V40.147H40.6269V34.3813H41.8618Z" fill="white"/>
<path d="M47.8734 34.3813H49.1083V38.3366C49.1083 38.7914 49.0312 39.1346 48.8511 39.4263C48.6624 39.718 48.4309 39.9067 48.1393 40.044C47.8477 40.1727 47.479 40.2242 47.0845 40.2242C46.6986 40.2242 46.3298 40.1727 46.0382 40.044C45.7466 39.9067 45.4894 39.718 45.3264 39.4263C45.1721 39.1346 45.0692 38.7914 45.0692 38.3366V34.3813H46.3041V38.3366C46.3041 38.5769 46.3298 38.7914 46.3812 38.9286C46.4327 39.0573 46.5356 39.1346 46.6385 39.1946C46.75 39.2461 46.9044 39.2718 47.0845 39.2718C47.2731 39.2718 47.4018 39.2718 47.539 39.1946C47.6419 39.1346 47.7448 39.0573 47.7963 38.9286C47.8477 38.7914 47.8734 38.6026 47.8734 38.3366V34.3813Z" fill="white"/>
<path d="M54.9142 38.6283C54.9142 38.5254 54.9142 38.4482 54.8885 38.3366C54.8627 38.2337 54.837 38.1822 54.7598 38.105C54.6826 38.0192 54.5969 37.9677 54.4682 37.8905C54.3396 37.8047 54.1767 37.7532 53.9966 37.676C53.7564 37.5988 53.5506 37.4872 53.3362 37.3843C53.1304 37.2813 52.916 37.1698 52.7617 37.0411C52.5816 36.9038 52.4444 36.7494 52.3414 36.5606C52.2385 36.3719 52.1871 36.1574 52.1871 35.9257C52.1871 35.6855 52.2385 35.471 52.3157 35.2565C52.4186 35.0677 52.5558 34.8876 52.7102 34.7503C52.8646 34.6216 53.1047 34.51 53.3362 34.4328C53.5764 34.3556 53.8422 34.3299 54.1252 34.3299C54.4168 34.3299 54.8627 34.4071 55.1543 34.5701C55.4373 34.7245 55.6774 34.939 55.8318 35.205C55.9947 35.471 56.0719 35.7884 56.0719 36.1316H54.837C54.837 35.9772 54.837 35.8142 54.7598 35.7112C54.6826 35.5997 54.6312 35.4967 54.5197 35.4195C54.4168 35.3337 54.2881 35.308 54.0995 35.308C53.9194 35.308 53.8165 35.3337 53.705 35.3938C53.6021 35.4452 53.5249 35.5225 53.4734 35.6254C53.422 35.737 53.3963 35.8399 53.3963 35.9772C53.3963 36.1059 53.3963 36.1574 53.4734 36.2432C53.5249 36.3204 53.6021 36.3719 53.6793 36.4577C53.7564 36.5091 53.8679 36.5606 53.9966 36.6378C54.1252 36.715 54.2624 36.7494 54.3911 36.8008C54.6826 36.9038 54.9142 37.0153 55.1286 37.144C55.3344 37.2813 55.5231 37.41 55.6774 37.5387C55.8318 37.7017 55.9433 37.8647 55.9947 38.0449C56.0719 38.2337 56.0976 38.4482 56.0976 38.6884C56.0976 38.9286 56.0462 39.1346 55.969 39.349C55.8918 39.5378 55.7546 39.718 55.5745 39.8553C55.4116 39.984 55.2058 40.0955 54.9656 40.1727C54.7341 40.2499 54.4682 40.2757 54.1509 40.2757C53.8422 40.2757 53.6021 40.2499 53.3362 40.1727C53.079 40.0955 52.8646 39.9839 52.6587 39.8295C52.4444 39.6665 52.3157 39.4863 52.2128 39.2461C52.1099 39.0059 52.0499 38.7141 52.0499 38.3967H53.2848C53.2848 38.5769 53.2848 38.7141 53.3362 38.8428C53.3705 38.9801 53.4477 39.0573 53.4992 39.1346C53.5764 39.2203 53.6793 39.2718 53.7907 39.2976C53.8937 39.3233 54.0223 39.349 54.1767 39.349C54.3396 39.349 54.4682 39.3233 54.5711 39.2718C54.6826 39.2203 54.7341 39.1346 54.7855 39.0316C54.837 38.9286 54.837 38.8171 54.837 38.7141L54.9142 38.6283Z" fill="white"/>
<path d="M62.0063 34.3813H63.2413V38.3366C63.2413 38.7914 63.1641 39.1346 62.984 39.4263C62.7953 39.718 62.5638 39.9067 62.2722 40.044C61.9806 40.1727 61.6119 40.2242 61.2174 40.2242C60.8229 40.2242 60.4627 40.1727 60.1711 40.044C59.8795 39.9067 59.6137 39.718 59.4593 39.4263C59.305 39.1346 59.1935 38.7914 59.1935 38.3366V34.3813H60.4284V38.3366C60.4284 38.5769 60.4627 38.7914 60.5142 38.9286C60.5656 39.0573 60.6685 39.1346 60.7714 39.1946C60.8829 39.2461 61.0373 39.2718 61.2174 39.2718C61.406 39.2718 61.5347 39.2718 61.6633 39.1946C61.7748 39.1346 61.8777 39.0573 61.9292 38.9286C61.9806 38.7914 62.0063 38.6026 62.0063 38.3366V34.3813Z" fill="white"/>
<path d="M69.0471 38.6283C69.0471 38.5254 69.0471 38.4482 69.0213 38.3366C68.9956 38.2337 68.9699 38.1822 68.8927 38.105C68.8155 38.0192 68.7297 37.9677 68.6011 37.8905C68.4725 37.8047 68.3095 37.7532 68.1294 37.676C67.8893 37.5988 67.6835 37.4872 67.4691 37.3843C67.2633 37.2813 67.0489 37.1698 66.8945 37.0411C66.7059 36.9038 66.5772 36.7494 66.4743 36.5606C66.3714 36.3719 66.32 36.1574 66.32 35.9257C66.32 35.6855 66.3714 35.471 66.4486 35.2565C66.5515 35.0677 66.6801 34.8876 66.8431 34.7503C66.9974 34.6216 67.2376 34.51 67.4691 34.4328C67.7092 34.3556 67.9665 34.3299 68.2581 34.3299C68.5497 34.3299 68.9956 34.4071 69.2872 34.5701C69.5702 34.7245 69.8103 34.939 69.9647 35.205C70.1276 35.471 70.2048 35.7884 70.2048 36.1316H68.9699C68.9699 35.9772 68.9699 35.8142 68.8927 35.7112C68.8155 35.5997 68.7555 35.4967 68.6526 35.4195C68.5497 35.3337 68.421 35.308 68.2324 35.308C68.0523 35.308 67.9408 35.3337 67.8379 35.3938C67.735 35.4452 67.6578 35.5225 67.6063 35.6254C67.5463 35.737 67.5206 35.8399 67.5206 35.9772C67.5206 36.1059 67.5206 36.1574 67.6063 36.2432C67.6578 36.3204 67.735 36.3719 67.8121 36.4577C67.8893 36.5091 68.0008 36.5606 68.1294 36.6378C68.2581 36.715 68.3867 36.7494 68.5239 36.8008C68.8155 36.9038 69.047 37.0153 69.2614 37.144C69.4673 37.2813 69.6559 37.41 69.8103 37.5387C69.9647 37.7017 70.0761 37.8647 70.1276 38.0449C70.2048 38.2337 70.2305 38.4482 70.2305 38.6884C70.2305 38.9286 70.1791 39.1346 70.1019 39.349C70.0161 39.5378 69.8875 39.718 69.7074 39.8553C69.5444 39.984 69.3386 40.0955 69.0985 40.1727C68.867 40.2499 68.6011 40.2757 68.2838 40.2757C67.9665 40.2757 67.735 40.2499 67.4691 40.1727C67.2118 40.0955 66.9974 39.9839 66.7916 39.8295C66.5772 39.6665 66.4486 39.4863 66.3457 39.2461C66.2342 39.0059 66.1827 38.7141 66.1827 38.3967H67.4176C67.4176 38.5769 67.4177 38.7141 67.4691 38.8428C67.4948 38.9801 67.5806 39.0573 67.632 39.1346C67.7092 39.2203 67.8121 39.2718 67.915 39.2976C68.0265 39.3233 68.1552 39.349 68.3095 39.349C68.4725 39.349 68.6011 39.3233 68.704 39.2718C68.8155 39.2203 68.867 39.1346 68.9184 39.0316C68.9699 38.9286 68.9699 38.8171 68.9699 38.7141L69.0471 38.6283Z" fill="white"/>
<path d="M74.2783 34.3813L75.2216 36.981L76.165 34.3813H77.5285L75.8477 38.0449V40.147H74.587V38.0449L72.9062 34.3813H74.2783Z" fill="white"/>
<path d="M85.7784 34.3813V40.147H84.5435V34.3813H85.7784ZM88.8486 34.3813L86.8333 37.247L85.5983 38.6884L85.3582 37.513L86.1472 36.2946L87.3049 34.4071H88.8228L88.8486 34.3813ZM87.4336 40.147L86.07 37.513L86.9876 36.7751L88.9086 40.1727H87.4336V40.147Z" fill="white"/>
<path d="M93.8139 35.4195L92.4761 40.147H91.164L93.1107 34.3813H93.9254L93.8139 35.4195ZM92.0559 33.5062C92.0559 33.3689 92.1073 33.2402 92.2188 33.1544C92.3217 33.0515 92.4761 33.0257 92.639 33.0257C92.7934 33.0257 92.9478 33.0772 93.0592 33.1544C93.1622 33.266 93.2136 33.3689 93.2136 33.5062C93.2136 33.6349 93.1622 33.7722 93.0592 33.8494C92.9478 33.9524 92.7934 33.9781 92.639 33.9781C92.4761 33.9781 92.3217 33.9266 92.2188 33.8494C92.1073 33.7464 92.0559 33.6349 92.0559 33.5062ZM94.9202 37.9934V38.9544H92.1331V37.9934H94.9202ZM94.8687 40.147L93.5309 35.4195L93.3937 34.3813H94.2341L96.1808 40.147H94.8687ZM94.1312 33.5062C94.1312 33.3689 94.1827 33.2402 94.2856 33.1287C94.3971 33.0257 94.5514 33 94.7144 33C94.8687 33 95.0231 33.0515 95.1346 33.1287C95.2375 33.2402 95.289 33.3432 95.289 33.5062C95.289 33.6606 95.2375 33.7722 95.1346 33.8494C95.0231 33.9524 94.8687 33.9781 94.7144 33.9781C94.5514 33.9781 94.3971 33.9266 94.2856 33.8494C94.1827 33.7464 94.1312 33.6349 94.1312 33.5062Z" fill="white"/>
<path d="M99.0195 34.3813H101.018C101.438 34.3813 101.772 34.4328 102.064 34.5701C102.355 34.6988 102.587 34.8876 102.75 35.1535C102.904 35.4195 102.981 35.737 102.981 36.1059C102.981 36.4834 102.93 36.6893 102.853 36.9038C102.776 37.1183 102.638 37.3071 102.458 37.4615C102.304 37.6245 102.09 37.7275 101.858 37.8047L101.489 38.0192H99.8856V37.0668H100.992C101.146 37.0668 101.301 37.0411 101.412 36.9553C101.515 36.8781 101.592 36.8008 101.669 36.6636C101.721 36.5349 101.747 36.3976 101.747 36.2174C101.747 36.0287 101.747 35.8656 101.669 35.737C101.618 35.5997 101.541 35.4967 101.438 35.4452C101.326 35.3938 101.198 35.3337 101.018 35.3337H100.28V40.1212H99.0195V34.3556V34.3813ZM101.832 40.147L100.7 37.573H102.012L103.17 40.0698V40.1212H101.832V40.147Z" fill="white"/>
<path d="M107.321 34.3813V40.147H106.086V34.3813H107.321ZM109.499 36.7151V37.676H106.952V36.7151H109.499ZM110.391 34.3813V40.147H109.156V34.3813H110.391Z" fill="white"/>
<path d="M115.879 35.4195L114.542 40.147H113.23L115.168 34.3813H115.982L115.879 35.4195ZM116.986 37.9934V38.9544H114.199V37.9934H116.986ZM116.934 40.147L115.588 35.4195L115.459 34.3813H116.3L118.246 40.147H116.934Z" fill="white"/>
<path d="M125.39 34.3813V40.147H124.181L122.234 36.5606V40.147H121.059V34.3813H122.234L124.207 38.0192V34.3813H125.39Z" fill="white"/>
<path d="M130.878 35.4195L129.541 40.147H128.229L130.167 34.3813H130.981L130.878 35.4195ZM131.985 37.9934V38.9544H129.198V37.9934H131.985ZM131.933 40.147L130.587 35.4195L130.458 34.3813H131.299L133.245 40.147H131.933Z" fill="white"/>
<path d="M138.682 38.6283C138.682 38.5254 138.682 38.4482 138.657 38.3366C138.657 38.2594 138.605 38.1822 138.52 38.105C138.442 38.0192 138.365 37.9677 138.237 37.8905C138.099 37.8047 137.945 37.7532 137.765 37.676C137.525 37.5988 137.31 37.4872 137.105 37.3843C136.89 37.2813 136.684 37.1698 136.53 37.0411C136.367 36.9038 136.213 36.7494 136.11 36.5606C135.998 36.3719 135.947 36.1574 135.947 35.9257C135.947 35.6855 135.998 35.471 136.084 35.2565C136.187 35.0677 136.316 34.8876 136.47 34.7503C136.659 34.6216 136.864 34.51 137.105 34.4328C137.345 34.3556 137.602 34.3299 137.894 34.3299C138.185 34.3299 138.631 34.4071 138.914 34.5701C139.206 34.7245 139.446 34.939 139.6 35.205C139.754 35.471 139.84 35.7884 139.84 36.1316H138.605C138.605 35.9772 138.605 35.8142 138.52 35.7112C138.442 35.5997 138.391 35.4967 138.288 35.4195C138.185 35.3337 138.048 35.308 137.868 35.308C137.679 35.308 137.576 35.3337 137.473 35.3938C137.37 35.4452 137.285 35.5225 137.233 35.6254C137.182 35.737 137.156 35.8399 137.156 35.9772C137.156 36.1059 137.156 36.1574 137.233 36.2432C137.285 36.3204 137.37 36.3719 137.448 36.4577C137.525 36.5091 137.628 36.5606 137.765 36.6378C137.894 36.6893 138.022 36.7494 138.159 36.8008C138.442 36.9038 138.682 37.0153 138.888 37.144C139.103 37.2813 139.283 37.41 139.446 37.5387C139.6 37.7017 139.703 37.8647 139.754 38.0449C139.806 38.2337 139.866 38.4482 139.866 38.6884C139.866 38.9286 139.806 39.1346 139.729 39.349C139.652 39.5378 139.523 39.718 139.334 39.8553C139.18 39.984 138.965 40.0955 138.734 40.1727C138.494 40.2499 138.237 40.2757 137.919 40.2757C137.602 40.2757 137.37 40.2499 137.105 40.1727C136.839 40.0955 136.633 39.9839 136.418 39.8295C136.213 39.6665 136.084 39.4863 135.973 39.2461C135.87 39.0059 135.818 38.7141 135.818 38.3967H137.079C137.079 38.5769 137.079 38.7141 137.13 38.8428C137.182 38.9801 137.233 39.0573 137.285 39.1346C137.37 39.2203 137.473 39.2718 137.576 39.2976C137.679 39.3233 137.816 39.349 137.971 39.349C138.125 39.349 138.262 39.3233 138.365 39.2718C138.468 39.2203 138.52 39.1346 138.58 39.0316C138.631 38.9286 138.631 38.8171 138.631 38.7141L138.682 38.6283Z" fill="white"/>
<path d="M143.905 34.3813L144.857 36.981L145.8 34.3813H147.164L145.483 38.0449V40.147H144.222V38.0449L142.542 34.3813H143.905Z" fill="white"/>
<path d="M10.2484 12.7618L12.9326 19.5656L15.634 12.7618H20.9167L15.4539 22.8087V28.4371H10.4628V22.8087L5 12.7618H10.2741H10.2484Z" fill="white"/>
<path d="M31.868 16.0564L27.9831 28.4371H22.7004L29.158 12.7618H32.4683L31.8937 16.0564H31.868ZM35.0753 22.5942V25.5114H26.0107V22.5942H35.0753ZM34.9124 28.4371L31.0275 16.0564L30.3672 12.7618H33.7289L40.1951 28.4371H34.9124Z" fill="white"/>
<path d="M52.0383 24.2673C52.0383 24.0271 52.0125 23.8126 51.9354 23.5981C51.8839 23.4179 51.7553 23.2291 51.5666 23.0404C51.3865 22.886 51.1207 22.6972 50.7776 22.5084C50.4346 22.3283 49.9372 22.1395 49.3626 21.9508C48.6251 21.7191 47.8876 21.4789 47.1586 21.1872C46.4211 20.8954 45.7865 20.5437 45.2119 20.1747C44.6288 19.7715 44.1828 19.3253 43.8484 18.7934C43.5053 18.2614 43.3167 17.6523 43.3167 16.9573C43.3167 16.2709 43.5053 15.6875 43.8484 15.1212C44.1828 14.5979 44.6888 14.1174 45.2891 13.7399C45.9237 13.371 46.6269 13.0535 47.4674 12.8647C48.3078 12.6503 49.2254 12.5473 50.2288 12.5473C51.2236 12.5473 52.7243 12.736 53.7191 13.1307C54.7225 13.534 55.5372 14.0917 56.086 14.8295C56.6606 15.5502 56.9522 16.4254 56.9522 17.412H52.0383C52.0383 17.0088 51.9611 16.6656 51.8324 16.3739C51.6952 16.0822 51.4894 15.8419 51.1978 15.6532C50.9063 15.4987 50.5461 15.3872 50.1001 15.3872C49.6456 15.3872 49.3369 15.473 49.0453 15.6017C48.7537 15.739 48.5479 15.9449 48.4193 16.1851C48.2821 16.4254 48.2049 16.6913 48.2049 16.983C48.2049 17.2748 48.2821 17.4378 48.4193 17.6265C48.5479 17.8067 48.7537 17.9955 49.0196 18.1585C49.2854 18.3129 49.5684 18.4759 49.9115 18.6304C50.2545 18.7934 50.6233 18.9221 51.0177 19.0851C51.9611 19.3511 52.8015 19.6428 53.539 19.9602C54.2765 20.2777 54.8769 20.6552 55.3742 21.0756C55.8716 21.5046 56.2404 21.9508 56.5063 22.4827C56.7721 23.0147 56.875 23.5981 56.875 24.2673C56.875 24.9279 56.7121 25.5972 56.4291 26.1291C56.1375 26.6611 55.6916 27.133 55.117 27.5105C54.5338 27.8794 53.8563 28.1711 53.0416 28.3599C52.2269 28.5486 51.3007 28.6516 50.306 28.6516C49.3112 28.6516 48.4707 28.5486 47.5788 28.3341C46.6784 28.1196 45.8637 27.8022 45.1605 27.3732C44.423 26.9528 43.8484 26.3951 43.4282 25.7259C43.0079 25.0652 42.7678 24.2673 42.7678 23.3407H47.7075C47.7075 23.7868 47.7589 24.1901 47.8361 24.5075C47.939 24.825 48.0762 25.0652 48.2821 25.2797C48.4965 25.4599 48.7537 25.5972 49.071 25.6744C49.3883 25.7516 49.8086 25.8117 50.2802 25.8117C50.7519 25.8117 51.0692 25.7259 51.3007 25.5972C51.5409 25.4599 51.721 25.2797 51.8067 25.0395C51.9096 24.7992 51.9354 24.559 51.9354 24.2673H52.0383ZM48.4193 28.3341H51.9868L51.8582 28.9948C52.2784 29.072 52.6986 29.235 53.0416 29.5267C53.4018 29.7927 53.5905 30.2474 53.5905 30.8566C53.5905 31.4658 53.4876 31.6288 53.2989 31.9462C53.1188 32.2637 52.8015 32.5554 52.407 32.7956C52.0125 33.0359 51.5151 33.2246 50.9406 33.3276C50.3574 33.4649 49.6799 33.5163 48.8909 33.5163L48.8052 31.5172C48.9939 31.5172 49.1225 31.4915 49.2254 31.44C49.3369 31.3885 49.4141 31.2856 49.4655 31.174C49.517 31.0453 49.5427 30.8823 49.5427 30.6936C49.5427 30.5134 49.4912 30.3761 49.4141 30.2732C49.3112 30.1616 49.1482 30.0844 48.9424 30.0329C48.728 29.9814 48.4193 29.9557 48.0505 29.93L48.445 28.3599L48.4193 28.3341Z" fill="white"/>
<path d="M74.3439 12.7618V28.4371H69.43V12.7618H74.3439Z" fill="white"/>
<path d="M93.9654 12.7618V28.4371H89.0515L83.7945 18.6819V28.4371H78.8806V12.7618H83.7945L89.0515 22.5084V12.7618H93.9654Z" fill="white"/>
<path d="M110.217 12.7618V15.6875H97.7216V12.7618H110.217ZM111.794 14.7008L101.478 28.4371H97.9016V26.4466L108.381 12.7618H111.794V14.7008ZM111.794 25.5457V28.4371H99.0079V25.5457H111.794Z" fill="white"/>
<path d="M128.766 28.4371H116.417V13.002H128.294V15.8419H121.039V19.2739H127.797V22.088H121.039V25.6229H128.766V28.4371Z" fill="white"/>
<path d="M147.65 12.7618V28.4371H142.736L137.488 18.6819V28.4371H132.574V12.7618H137.488L142.736 22.5084V12.7618H147.65Z" fill="white"/>
<path d="M165.273 28.4371H152.933V13.002H164.801V15.8419H157.555V19.2739H164.304V22.088H157.555V25.6229H165.273V28.4371Z" fill="white"/>
<path d="M169.141 12.7618H176.284C177.674 12.7618 178.883 12.9505 179.903 13.2937C180.933 13.6627 181.722 14.1689 182.27 14.8896C182.819 15.576 183.085 16.4511 183.085 17.4893C183.085 18.5274 182.931 19.1366 182.639 19.7458C182.348 20.3635 181.902 20.8354 181.378 21.2386C180.83 21.6333 180.195 21.9508 179.458 22.191L177.854 22.886H172.237V19.9602C172.211 19.9602 176.147 19.9602 176.147 19.9602C176.593 19.9602 176.962 19.883 177.279 19.6943C177.571 19.5398 177.802 19.2739 177.94 18.9478C178.094 18.6304 178.145 18.2614 178.145 17.8067C178.145 17.3606 178.068 16.9573 177.94 16.6399C177.802 16.3224 177.597 16.0822 177.305 15.8934C177.013 15.7132 176.679 15.6274 176.259 15.6274H174.02V28.3856H169.107V12.7103L169.141 12.7618ZM178.386 28.4371L174.681 21.5046H179.878L183.66 28.2826V28.4371H178.386Z" fill="white"/>
<path d="M102.841 8.21448H100.32L102.841 11.2174H105.834L108.227 8.21448H105.414L104.256 9.46713L102.841 8.21448Z" fill="white"/>
<path d="M16.1056 8H13.6358L12.5638 11.1402H13.7988L16.1056 8Z" fill="white"/>
<path d="M33.2332 40H1.00012V1H188V40H150.852M38.7659 34.3813V40.147H37.531V34.3813H38.7659ZM40.9442 36.7151V37.676H38.3972V36.7151H40.9442ZM41.8618 34.3813V40.147H40.6269V34.3813H41.8618ZM47.8734 34.3813H49.1083V38.3366C49.1083 38.7914 49.0312 39.1346 48.8511 39.4263C48.6624 39.718 48.4309 39.9067 48.1393 40.044C47.8477 40.1727 47.479 40.2242 47.0845 40.2242C46.6986 40.2242 46.3298 40.1727 46.0382 40.044C45.7466 39.9067 45.4894 39.718 45.3264 39.4263C45.1721 39.1346 45.0692 38.7914 45.0692 38.3366V34.3813H46.3041V38.3366C46.3041 38.5769 46.3298 38.7914 46.3812 38.9286C46.4327 39.0573 46.5356 39.1346 46.6385 39.1946C46.75 39.2461 46.9044 39.2718 47.0845 39.2718C47.2731 39.2718 47.4018 39.2718 47.539 39.1946C47.6419 39.1346 47.7448 39.0573 47.7963 38.9286C47.8477 38.7914 47.8734 38.6026 47.8734 38.3366V34.3813ZM54.9142 38.6283C54.9142 38.5254 54.9142 38.4482 54.8885 38.3366C54.8627 38.2337 54.837 38.1822 54.7598 38.105C54.6826 38.0192 54.5969 37.9677 54.4682 37.8905C54.3396 37.8047 54.1767 37.7532 53.9966 37.676C53.7564 37.5988 53.5506 37.4872 53.3362 37.3843C53.1304 37.2813 52.916 37.1698 52.7617 37.0411C52.5816 36.9038 52.4444 36.7494 52.3414 36.5606C52.2385 36.3719 52.1871 36.1574 52.1871 35.9257C52.1871 35.6855 52.2385 35.471 52.3157 35.2565C52.4186 35.0677 52.5558 34.8876 52.7102 34.7503C52.8646 34.6216 53.1047 34.51 53.3362 34.4328C53.5764 34.3556 53.8422 34.3299 54.1252 34.3299C54.4168 34.3299 54.8627 34.4071 55.1543 34.5701C55.4373 34.7245 55.6774 34.939 55.8318 35.205C55.9947 35.471 56.0719 35.7884 56.0719 36.1316H54.837C54.837 35.9772 54.837 35.8142 54.7598 35.7112C54.6826 35.5997 54.6312 35.4967 54.5197 35.4195C54.4168 35.3337 54.2881 35.308 54.0995 35.308C53.9194 35.308 53.8165 35.3337 53.705 35.3938C53.6021 35.4452 53.5249 35.5225 53.4734 35.6254C53.422 35.737 53.3963 35.8399 53.3963 35.9772C53.3963 36.1059 53.3963 36.1574 53.4734 36.2432C53.5249 36.3204 53.6021 36.3719 53.6793 36.4577C53.7564 36.5091 53.8679 36.5606 53.9966 36.6378C54.1252 36.715 54.2624 36.7494 54.3911 36.8008C54.6826 36.9038 54.9142 37.0153 55.1286 37.144C55.3344 37.2813 55.5231 37.41 55.6774 37.5387C55.8318 37.7017 55.9433 37.8647 55.9947 38.0449C56.0719 38.2337 56.0976 38.4482 56.0976 38.6884C56.0976 38.9286 56.0462 39.1346 55.969 39.349C55.8918 39.5378 55.7546 39.718 55.5745 39.8553C55.4116 39.984 55.2058 40.0955 54.9656 40.1727C54.7341 40.2499 54.4682 40.2757 54.1509 40.2757C53.8422 40.2757 53.6021 40.2499 53.3362 40.1727C53.079 40.0955 52.8646 39.9839 52.6587 39.8295C52.4444 39.6665 52.3157 39.4863 52.2128 39.2461C52.1099 39.0059 52.0499 38.7141 52.0499 38.3967H53.2848C53.2848 38.5769 53.2848 38.7141 53.3362 38.8428C53.3705 38.9801 53.4477 39.0573 53.4992 39.1346C53.5764 39.2203 53.6793 39.2718 53.7907 39.2976C53.8937 39.3233 54.0223 39.349 54.1767 39.349C54.3396 39.349 54.4682 39.3233 54.5711 39.2718C54.6826 39.2203 54.7341 39.1346 54.7855 39.0316C54.837 38.9286 54.837 38.8171 54.837 38.7141L54.9142 38.6283ZM62.0063 34.3813H63.2413V38.3366C63.2413 38.7914 63.1641 39.1346 62.984 39.4263C62.7953 39.718 62.5638 39.9067 62.2722 40.044C61.9806 40.1727 61.6119 40.2242 61.2174 40.2242C60.8229 40.2242 60.4627 40.1727 60.1711 40.044C59.8795 39.9067 59.6137 39.718 59.4593 39.4263C59.305 39.1346 59.1935 38.7914 59.1935 38.3366V34.3813H60.4284V38.3366C60.4284 38.5769 60.4627 38.7914 60.5142 38.9286C60.5656 39.0573 60.6685 39.1346 60.7714 39.1946C60.8829 39.2461 61.0373 39.2718 61.2174 39.2718C61.406 39.2718 61.5347 39.2718 61.6633 39.1946C61.7748 39.1346 61.8777 39.0573 61.9292 38.9286C61.9806 38.7914 62.0063 38.6026 62.0063 38.3366V34.3813ZM69.0471 38.6283C69.0471 38.5254 69.0471 38.4482 69.0213 38.3366C68.9956 38.2337 68.9699 38.1822 68.8927 38.105C68.8155 38.0192 68.7297 37.9677 68.6011 37.8905C68.4725 37.8047 68.3095 37.7532 68.1294 37.676C67.8893 37.5988 67.6835 37.4872 67.4691 37.3843C67.2633 37.2813 67.0489 37.1698 66.8945 37.0411C66.7059 36.9038 66.5772 36.7494 66.4743 36.5606C66.3714 36.3719 66.32 36.1574 66.32 35.9257C66.32 35.6855 66.3714 35.471 66.4486 35.2565C66.5515 35.0677 66.6801 34.8876 66.8431 34.7503C66.9974 34.6216 67.2376 34.51 67.4691 34.4328C67.7092 34.3556 67.9665 34.3299 68.2581 34.3299C68.5497 34.3299 68.9956 34.4071 69.2872 34.5701C69.5702 34.7245 69.8103 34.939 69.9647 35.205C70.1276 35.471 70.2048 35.7884 70.2048 36.1316H68.9699C68.9699 35.9772 68.9699 35.8142 68.8927 35.7112C68.8155 35.5997 68.7555 35.4967 68.6526 35.4195C68.5497 35.3337 68.421 35.308 68.2324 35.308C68.0523 35.308 67.9408 35.3337 67.8379 35.3938C67.735 35.4452 67.6578 35.5225 67.6063 35.6254C67.5463 35.737 67.5206 35.8399 67.5206 35.9772C67.5206 36.1059 67.5206 36.1574 67.6063 36.2432C67.6578 36.3204 67.735 36.3719 67.8121 36.4577C67.8893 36.5091 68.0008 36.5606 68.1294 36.6378C68.2581 36.715 68.3867 36.7494 68.5239 36.8008C68.8155 36.9038 69.047 37.0153 69.2614 37.144C69.4673 37.2813 69.6559 37.41 69.8103 37.5387C69.9647 37.7017 70.0761 37.8647 70.1276 38.0449C70.2048 38.2337 70.2305 38.4482 70.2305 38.6884C70.2305 38.9286 70.1791 39.1346 70.1019 39.349C70.0161 39.5378 69.8875 39.718 69.7074 39.8553C69.5444 39.984 69.3386 40.0955 69.0985 40.1727C68.867 40.2499 68.6011 40.2757 68.2838 40.2757C67.9665 40.2757 67.735 40.2499 67.4691 40.1727C67.2118 40.0955 66.9974 39.9839 66.7916 39.8295C66.5772 39.6665 66.4486 39.4863 66.3457 39.2461C66.2342 39.0059 66.1827 38.7141 66.1827 38.3967H67.4176C67.4176 38.5769 67.4177 38.7141 67.4691 38.8428C67.4948 38.9801 67.5806 39.0573 67.632 39.1346C67.7092 39.2203 67.8121 39.2718 67.915 39.2976C68.0265 39.3233 68.1552 39.349 68.3095 39.349C68.4725 39.349 68.6011 39.3233 68.704 39.2718C68.8155 39.2203 68.867 39.1346 68.9184 39.0316C68.9699 38.9286 68.9699 38.8171 68.9699 38.7141L69.0471 38.6283ZM74.2783 34.3813L75.2216 36.981L76.165 34.3813H77.5285L75.8477 38.0449V40.147H74.587V38.0449L72.9062 34.3813H74.2783ZM85.7784 34.3813V40.147H84.5435V34.3813H85.7784ZM88.8486 34.3813L86.8333 37.247L85.5983 38.6884L85.3582 37.513L86.1472 36.2946L87.3049 34.4071H88.8228L88.8486 34.3813ZM87.4336 40.147L86.07 37.513L86.9876 36.7751L88.9086 40.1727H87.4336V40.147ZM93.8139 35.4195L92.4761 40.147H91.164L93.1107 34.3813H93.9254L93.8139 35.4195ZM92.0559 33.5062C92.0559 33.3689 92.1073 33.2402 92.2188 33.1544C92.3217 33.0515 92.4761 33.0257 92.639 33.0257C92.7934 33.0257 92.9478 33.0772 93.0592 33.1544C93.1622 33.266 93.2136 33.3689 93.2136 33.5062C93.2136 33.6349 93.1622 33.7722 93.0592 33.8494C92.9478 33.9524 92.7934 33.9781 92.639 33.9781C92.4761 33.9781 92.3217 33.9266 92.2188 33.8494C92.1073 33.7464 92.0559 33.6349 92.0559 33.5062ZM94.9202 37.9934V38.9544H92.1331V37.9934H94.9202ZM94.8687 40.147L93.5309 35.4195L93.3937 34.3813H94.2341L96.1808 40.147H94.8687ZM94.1312 33.5062C94.1312 33.3689 94.1827 33.2402 94.2856 33.1287C94.3971 33.0257 94.5514 33 94.7144 33C94.8687 33 95.0231 33.0515 95.1346 33.1287C95.2375 33.2402 95.289 33.3432 95.289 33.5062C95.289 33.6606 95.2375 33.7722 95.1346 33.8494C95.0231 33.9524 94.8687 33.9781 94.7144 33.9781C94.5514 33.9781 94.3971 33.9266 94.2856 33.8494C94.1827 33.7464 94.1312 33.6349 94.1312 33.5062ZM99.0195 34.3813H101.018C101.438 34.3813 101.772 34.4328 102.064 34.5701C102.355 34.6988 102.587 34.8876 102.75 35.1535C102.904 35.4195 102.981 35.737 102.981 36.1059C102.981 36.4834 102.93 36.6893 102.853 36.9038C102.776 37.1183 102.638 37.3071 102.458 37.4615C102.304 37.6245 102.09 37.7275 101.858 37.8047L101.489 38.0192H99.8856V37.0668H100.992C101.146 37.0668 101.301 37.0411 101.412 36.9553C101.515 36.8781 101.592 36.8008 101.669 36.6636C101.721 36.5349 101.747 36.3976 101.747 36.2174C101.747 36.0287 101.747 35.8656 101.669 35.737C101.618 35.5997 101.541 35.4967 101.438 35.4452C101.326 35.3938 101.198 35.3337 101.018 35.3337H100.28V40.1212H99.0195V34.3556V34.3813ZM101.832 40.147L100.7 37.573H102.012L103.17 40.0698V40.1212H101.832V40.147ZM107.321 34.3813V40.147H106.086V34.3813H107.321ZM109.499 36.7151V37.676H106.952V36.7151H109.499ZM110.391 34.3813V40.147H109.156V34.3813H110.391ZM115.879 35.4195L114.542 40.147H113.23L115.168 34.3813H115.982L115.879 35.4195ZM116.986 37.9934V38.9544H114.199V37.9934H116.986ZM116.934 40.147L115.588 35.4195L115.459 34.3813H116.3L118.246 40.147H116.934ZM125.39 34.3813V40.147H124.181L122.234 36.5606V40.147H121.059V34.3813H122.234L124.207 38.0192V34.3813H125.39ZM130.878 35.4195L129.541 40.147H128.229L130.167 34.3813H130.981L130.878 35.4195ZM131.985 37.9934V38.9544H129.198V37.9934H131.985ZM131.933 40.147L130.587 35.4195L130.458 34.3813H131.299L133.245 40.147H131.933ZM138.682 38.6283C138.682 38.5254 138.682 38.4482 138.657 38.3366C138.657 38.2594 138.605 38.1822 138.52 38.105C138.442 38.0192 138.365 37.9677 138.237 37.8905C138.099 37.8047 137.945 37.7532 137.765 37.676C137.525 37.5988 137.31 37.4872 137.105 37.3843C136.89 37.2813 136.684 37.1698 136.53 37.0411C136.367 36.9038 136.213 36.7494 136.11 36.5606C135.998 36.3719 135.947 36.1574 135.947 35.9257C135.947 35.6855 135.998 35.471 136.084 35.2565C136.187 35.0677 136.316 34.8876 136.47 34.7503C136.659 34.6216 136.864 34.51 137.105 34.4328C137.345 34.3556 137.602 34.3299 137.894 34.3299C138.185 34.3299 138.631 34.4071 138.914 34.5701C139.206 34.7245 139.446 34.939 139.6 35.205C139.754 35.471 139.84 35.7884 139.84 36.1316H138.605C138.605 35.9772 138.605 35.8142 138.52 35.7112C138.442 35.5997 138.391 35.4967 138.288 35.4195C138.185 35.3337 138.048 35.308 137.868 35.308C137.679 35.308 137.576 35.3337 137.473 35.3938C137.37 35.4452 137.285 35.5225 137.233 35.6254C137.182 35.737 137.156 35.8399 137.156 35.9772C137.156 36.1059 137.156 36.1574 137.233 36.2432C137.285 36.3204 137.37 36.3719 137.448 36.4577C137.525 36.5091 137.628 36.5606 137.765 36.6378C137.894 36.6893 138.022 36.7494 138.159 36.8008C138.442 36.9038 138.682 37.0153 138.888 37.144C139.103 37.2813 139.283 37.41 139.446 37.5387C139.6 37.7017 139.703 37.8647 139.754 38.0449C139.806 38.2337 139.866 38.4482 139.866 38.6884C139.866 38.9286 139.806 39.1346 139.729 39.349C139.652 39.5378 139.523 39.718 139.334 39.8553C139.18 39.984 138.965 40.0955 138.734 40.1727C138.494 40.2499 138.237 40.2757 137.919 40.2757C137.602 40.2757 137.37 40.2499 137.105 40.1727C136.839 40.0955 136.633 39.9839 136.418 39.8295C136.213 39.6665 136.084 39.4863 135.973 39.2461C135.87 39.0059 135.818 38.7141 135.818 38.3967H137.079C137.079 38.5769 137.079 38.7141 137.13 38.8428C137.182 38.9801 137.233 39.0573 137.285 39.1346C137.37 39.2203 137.473 39.2718 137.576 39.2976C137.679 39.3233 137.816 39.349 137.971 39.349C138.125 39.349 138.262 39.3233 138.365 39.2718C138.468 39.2203 138.52 39.1346 138.58 39.0316C138.631 38.9286 138.631 38.8171 138.631 38.7141L138.682 38.6283ZM143.905 34.3813L144.857 36.981L145.8 34.3813H147.164L145.483 38.0449V40.147H144.222V38.0449L142.542 34.3813H143.905ZM10.2484 12.7618L12.9326 19.5656L15.634 12.7618H20.9167L15.4539 22.8087V28.4371H10.4628V22.8087L5 12.7618H10.2741H10.2484ZM31.868 16.0564L27.9831 28.4371H22.7004L29.158 12.7618H32.4683L31.8937 16.0564H31.868ZM35.0753 22.5942V25.5114H26.0107V22.5942H35.0753ZM34.9124 28.4371L31.0275 16.0564L30.3672 12.7618H33.7289L40.1951 28.4371H34.9124ZM52.0383 24.2673C52.0383 24.0271 52.0125 23.8126 51.9354 23.5981C51.8839 23.4179 51.7553 23.2291 51.5666 23.0404C51.3865 22.886 51.1207 22.6972 50.7776 22.5084C50.4346 22.3283 49.9372 22.1395 49.3626 21.9508C48.6251 21.7191 47.8876 21.4789 47.1586 21.1872C46.4211 20.8954 45.7865 20.5437 45.2119 20.1747C44.6288 19.7715 44.1828 19.3253 43.8484 18.7934C43.5053 18.2614 43.3167 17.6523 43.3167 16.9573C43.3167 16.2709 43.5053 15.6875 43.8484 15.1212C44.1828 14.5979 44.6888 14.1174 45.2891 13.7399C45.9237 13.371 46.6269 13.0535 47.4674 12.8647C48.3078 12.6503 49.2254 12.5473 50.2288 12.5473C51.2236 12.5473 52.7243 12.736 53.7191 13.1307C54.7225 13.534 55.5372 14.0917 56.086 14.8295C56.6606 15.5502 56.9522 16.4254 56.9522 17.412H52.0383C52.0383 17.0088 51.9611 16.6656 51.8324 16.3739C51.6952 16.0822 51.4894 15.8419 51.1978 15.6532C50.9063 15.4987 50.5461 15.3872 50.1001 15.3872C49.6456 15.3872 49.3369 15.473 49.0453 15.6017C48.7537 15.739 48.5479 15.9449 48.4193 16.1851C48.2821 16.4254 48.2049 16.6913 48.2049 16.983C48.2049 17.2748 48.2821 17.4378 48.4193 17.6265C48.5479 17.8067 48.7537 17.9955 49.0196 18.1585C49.2854 18.3129 49.5684 18.4759 49.9115 18.6304C50.2545 18.7934 50.6233 18.9221 51.0177 19.0851C51.9611 19.3511 52.8015 19.6428 53.539 19.9602C54.2765 20.2777 54.8769 20.6552 55.3742 21.0756C55.8716 21.5046 56.2404 21.9508 56.5063 22.4827C56.7721 23.0147 56.875 23.5981 56.875 24.2673C56.875 24.9279 56.7121 25.5972 56.4291 26.1291C56.1375 26.6611 55.6916 27.133 55.117 27.5105C54.5338 27.8794 53.8563 28.1711 53.0416 28.3599C52.2269 28.5486 51.3007 28.6516 50.306 28.6516C49.3112 28.6516 48.4707 28.5486 47.5788 28.3341C46.6784 28.1196 45.8637 27.8022 45.1605 27.3732C44.423 26.9528 43.8484 26.3951 43.4282 25.7259C43.0079 25.0652 42.7678 24.2673 42.7678 23.3407H47.7075C47.7075 23.7868 47.7589 24.1901 47.8361 24.5075C47.939 24.825 48.0762 25.0652 48.2821 25.2797C48.4965 25.4599 48.7537 25.5972 49.071 25.6744C49.3883 25.7516 49.8086 25.8117 50.2802 25.8117C50.7519 25.8117 51.0692 25.7259 51.3007 25.5972C51.5409 25.4599 51.721 25.2797 51.8067 25.0395C51.9096 24.7992 51.9354 24.559 51.9354 24.2673H52.0383ZM48.4193 28.3341H51.9868L51.8582 28.9948C52.2784 29.072 52.6986 29.235 53.0416 29.5267C53.4018 29.7927 53.5905 30.2474 53.5905 30.8566C53.5905 31.4658 53.4876 31.6288 53.2989 31.9462C53.1188 32.2637 52.8015 32.5554 52.407 32.7956C52.0125 33.0359 51.5151 33.2246 50.9406 33.3276C50.3574 33.4649 49.6799 33.5163 48.8909 33.5163L48.8052 31.5172C48.9939 31.5172 49.1225 31.4915 49.2254 31.44C49.3369 31.3885 49.4141 31.2856 49.4655 31.174C49.517 31.0453 49.5427 30.8823 49.5427 30.6936C49.5427 30.5134 49.4912 30.3761 49.4141 30.2732C49.3112 30.1616 49.1482 30.0844 48.9424 30.0329C48.728 29.9814 48.4193 29.9557 48.0505 29.93L48.445 28.3599L48.4193 28.3341ZM74.3439 12.7618V28.4371H69.43V12.7618H74.3439ZM93.9654 12.7618V28.4371H89.0515L83.7945 18.6819V28.4371H78.8806V12.7618H83.7945L89.0515 22.5084V12.7618H93.9654ZM110.217 12.7618V15.6875H97.7216V12.7618H110.217ZM111.794 14.7008L101.478 28.4371H97.9016V26.4466L108.381 12.7618H111.794V14.7008ZM111.794 25.5457V28.4371H99.0079V25.5457H111.794ZM128.766 28.4371H116.417V13.002H128.294V15.8419H121.039V19.2739H127.797V22.088H121.039V25.6229H128.766V28.4371ZM147.65 12.7618V28.4371H142.736L137.488 18.6819V28.4371H132.574V12.7618H137.488L142.736 22.5084V12.7618H147.65ZM165.273 28.4371H152.933V13.002H164.801V15.8419H157.555V19.2739H164.304V22.088H157.555V25.6229H165.273V28.4371ZM169.141 12.7618H176.284C177.674 12.7618 178.883 12.9505 179.903 13.2937C180.933 13.6627 181.722 14.1689 182.27 14.8896C182.819 15.576 183.085 16.4511 183.085 17.4893C183.085 18.5274 182.931 19.1366 182.639 19.7458C182.348 20.3635 181.902 20.8354 181.378 21.2386C180.83 21.6333 180.195 21.9508 179.458 22.191L177.854 22.886H172.237V19.9602C172.211 19.9602 176.147 19.9602 176.147 19.9602C176.593 19.9602 176.962 19.883 177.279 19.6943C177.571 19.5398 177.802 19.2739 177.94 18.9478C178.094 18.6304 178.145 18.2614 178.145 17.8067C178.145 17.3606 178.068 16.9573 177.94 16.6399C177.802 16.3224 177.597 16.0822 177.305 15.8934C177.013 15.7132 176.679 15.6274 176.259 15.6274H174.02V28.3856H169.107V12.7103L169.141 12.7618ZM178.386 28.4371L174.681 21.5046H179.878L183.66 28.2826V28.4371H178.386ZM102.841 8.21448H100.32L102.841 11.2174H105.834L108.227 8.21448H105.414L104.256 9.46713L102.841 8.21448ZM16.1056 8H13.6358L12.5638 11.1402H13.7988L16.1056 8Z" stroke="white" stroke-width="0.4" stroke-miterlimit="10"/>
</svg>
